<?xml version="1.0" encoding="utf-8"?>
<!-- Generator: Adobe Illustrator 24.0.0, SVG Export Plug-In . SVG Version: 6.00 Build 0)  -->
<svg version="1.1" baseProfile="tiny" id="Layer_1" xmlns="http://www.w3.org/2000/svg" xmlns:xlink="http://www.w3.org/1999/xlink"
	 x="0px" y="0px" viewBox="0 0 644.5 616" xml:space="preserve">
<path fill="#FFFFFF" d="M483.4,0H161.1C72.3,0,0,69.1,0,154v308c0,84.9,72.3,154,161.1,154h322.3c88.8,0,161.1-69.1,161.1-154V154
	C644.5,69.1,572.2,0,483.4,0z"/>
<rect x="216.5" y="378" fill="none" width="225" height="46"/>
<text transform="matrix(1 0 0 1 263.8672 415.3516)" font-family="'FranklinGothic-Heavy'" font-size="56px">Docs</text>
<text transform="matrix(1 0 0 1 241.875 503.0117)" font-family="'FranklinGothic-Heavy'" font-size="36px">Documents</text>
<g transform="translate(0.000000,171.000000) scale(0.100000,-0.100000)">
	<path fill="#FFFFFF" d="M2645.4,151.7c-202.5-36.5-367.5-178.9-429.3-371.4c-15.8-48.9-17.7-66.2-18.4-145.5
		c0-74.9,2-97.8,14.5-138c56.5-186.3,195.2-320.6,384.6-372c260.3-71.2,536.4,47,652.8,277.9c44,87.3,51.9,121.9,51.9,229
		c0,109.5-11.8,157.2-59.2,244.5c-71,128.7-198.5,227.2-345.1,266.2C2831.5,159.7,2714.4,164.1,2645.4,151.7z"/>
	<path fill="#FFFFFF" d="M3592.7,123.9c-101.2-28.5-192-174.6-222.2-355.9c-11.8-70.6-10.5-216.7,2.6-287.8
		c29.6-158.5,104.5-286,192-328.1c42.7-20.4,105.2-21.1,144-1.9c221.5,109.5,280,619.6,100.6,872.2
		C3748.5,109,3669.6,145.5,3592.7,123.9z"/>
	<path fill="#FFFFFF" d="M4055.5,76.2c-12.5-4.9-38.1-55.7-50-102.7c-59.8-225.9-38.1-679,36.1-768.2c32.9-39,62.4-10.5,87.4,84.2
		c62.4,231.5,38.8,695.7-38.8,775C4074.6,80.5,4070.6,81.8,4055.5,76.2z"/>
</g>
<path d="M392.3,90.5H263.8c-35.4,0-64.3,26.3-64.3,58.5v117.1c0,32.3,28.8,58.5,64.3,58.5h128.5c35.4,0,64.3-26.3,64.3-58.5V149.1
	C456.5,116.8,427.7,90.5,392.3,90.5z"/>
<g transform="translate(0.000000,225.000000) scale(0.100000,-0.100000)">
	<path fill="#FFFFFF" d="M2943.4,1030.7c-40.3-16.7-405.3-312.4-457.4-370.2l-34.4-38.2V1.3c0-681.7-2.4-662.1,71.1-693.4
		c29.6-12.7,129.2-14.7,711-14.7c731.1,0,722.8-1,788,52.9l29.6,24.5v794.3c0,871.7,3.6,835.4-71.1,866.8
		C3928.2,1054.2,2996.8,1053.2,2943.4,1030.7z M3973.2,966.1c16.6-19.6,19-110.7,19-787.5c0-421.2-3.6-773.7-7.1-782.6
		c-20.1-43.1-36.7-44.1-756-44.1h-681.4l-17.8,21.5c-16.6,19.6-19,95-19,621.9v600.4h189.6c287.9,0,296.2,6.9,296.2,243.9v147.9
		h478.7h479.9L3973.2,966.1z M2925.7,818.2c0-97-4.7-135.2-16.6-149.9c-15.4-16.7-34.4-18.6-177.7-21.5c-88.9-2-161.2,0-161.2,4.9
		c0,6.9,343.6,296.8,351.9,296.8C2924.5,948.4,2925.7,889.7,2925.7,818.2z"/>
	<path fill="#FFFFFF" d="M2763.3,403.9c-3.6-7.8-1.2-19.6,4.7-24.5s201.4-7.8,490.6-6.9c469.2,2.9,478.7,2.9,478.7,22.5
		c0,19.6-9.5,19.6-483.5,22.5C2822.6,419.6,2770.4,418.6,2763.3,403.9z"/>
	<path fill="#FFFFFF" d="M2774,136.5c-9.5-4.9-14.2-16.7-11.8-26.4c3.6-17.6,23.7-18.6,489.4-18.6s485.8,1,489.4,18.6
		c2.4,9.8-2.4,21.5-11.8,26.4c-8.3,4.9-222.8,8.8-477.5,8.8C2998,145.3,2782.3,141.4,2774,136.5z"/>
	<path fill="#FFFFFF" d="M2762.1-140.7l3.6-22.5h485.8h485.8l3.6,22.5l3.6,21.5h-492.9h-492.9L2762.1-140.7z"/>
	<path fill="#FFFFFF" d="M2759.8-408.1c-11.8-11.8-11.8-17.6,0-29.4c13-12.7,78.2-14.7,490.6-12.7c453.8,2.9,475.2,3.9,478.7,21.5
		c2.4,9.8-2.4,21.5-11.8,26.4c-8.3,4.9-224,8.8-478.7,8.8C2840.4-393.4,2772.8-395.3,2759.8-408.1z"/>
</g>
</svg>
