<?xml version="1.0" encoding="utf-8"?>
<!-- Generator: Adobe Illustrator 24.0.0, SVG Export Plug-In . SVG Version: 6.00 Build 0)  -->
<svg version="1.1" baseProfile="tiny" id="Layer_1" xmlns="http://www.w3.org/2000/svg" xmlns:xlink="http://www.w3.org/1999/xlink"
	 x="0px" y="0px" viewBox="0 0 644.5 611" xml:space="preserve">
<path fill="#FFFFFF" d="M483.4,0H161.1C72.3,0,0,68.5,0,152.8v305.5C0,542.5,72.3,611,161.1,611h322.3
	c88.8,0,161.1-68.5,161.1-152.8V152.8C644.5,68.5,572.2,0,483.4,0z"/>
<path fill="#502916" d="M359.9,127.2c6.9,5.9,6.9,15.5,0,21.4l-23,19.6l28.9,24.6h141.4c26,0,47.4,18.2,47.4,40.4v96.1
	c-17-9.7-37.2-15.3-59.2-15.3c-54.7,0-99.5,35.5-105.4,80.7h-74.4c1.2-6.7,2.1-13.3,2.1-20.2c0-31.1-14-59.3-36.5-80.7H294
	c26,0,47.4-18.2,47.4-40.4v-38.5l-29.6-25.2l-23,19.6c-6.9,5.9-18.2,5.9-25.1,0c-6.9-5.9-6.9-15.5,0-21.4l71-60.6
	C341.7,121.3,352.9,121.3,359.9,127.2z"/>
<path fill="#502916" d="M291.5,381.8c0,57.3-48.8,103.8-108.9,103.8S73.7,439.1,73.7,381.8S122.5,278,182.6,278
	S291.5,324.5,291.5,381.8z M247.9,381.8c0,34.4-29.3,62.3-65.3,62.3s-65.3-27.9-65.3-62.3s29.3-62.3,65.3-62.3
	S247.9,347.4,247.9,381.8z"/>
<path fill="#502916" d="M487.8,338.6c-40.6,0-73.7,32.5-73.7,72.5s33.1,72.5,73.7,72.5s73.7-32.5,73.7-72.5S528.4,338.6,487.8,338.6
	z M487.8,442.2c-17.5,0-31.6-13.9-31.6-31.1c0-17.2,14.1-31.1,31.6-31.1s31.6,13.9,31.6,31.1C519.4,428.3,505.3,442.2,487.8,442.2z"
	/>
<path fill="#502916" d="M235.1,265.7H133c-11.2,0-20.4-9.3-20.4-21.1c0-11.6,9.2-21.1,20.4-21.1h61.2
	C216.7,223.5,235.1,242.5,235.1,265.7z"/>
</svg>
