<?xml version="1.0" encoding="utf-8"?>
<!-- Generator: Adobe Illustrator 24.0.0, SVG Export Plug-In . SVG Version: 6.00 Build 0)  -->
<svg version="1.1" baseProfile="tiny" id="Layer_1" xmlns="http://www.w3.org/2000/svg" xmlns:xlink="http://www.w3.org/1999/xlink"
	 x="0px" y="0px" viewBox="0 0 644.5 616" xml:space="preserve">
<path fill="#FFFFFF" d="M483.4,0H161.1C72.3,0,0,69.1,0,154v308c0,84.9,72.3,154,161.1,154h322.3c88.8,0,161.1-69.1,161.1-154V154
	C644.5,69.1,572.2,0,483.4,0z"/>
<rect x="202.5" y="378" fill="none" width="225" height="46"/>
<text transform="matrix(1 0 0 1 221.5137 418.0195)" font-family="'FranklinGothic-Heavy'" font-size="60px">Github</text>
<text transform="matrix(1 0 0 1 121.1094 503.0117)" font-family="'FranklinGothic-Heavy'" font-size="36px">g</text>
<text transform="matrix(1 0 0 1 141.6055 503.0117)" font-family="'FranklinGothic-Heavy'" font-size="36px">i</text>
<text transform="matrix(1 0 0 1 152.3105 503.0117)" font-family="'FranklinGothic-Heavy'" font-size="36px">t</text>
<text transform="matrix(1 0 0 1 165.6875 503.0117)" font-family="'FranklinGothic-Heavy'" font-size="36px">h</text>
<text transform="matrix(1 0 0 1 186.957 503.0117)" font-family="'FranklinGothic-Heavy'" font-size="36px">u</text>
<text transform="matrix(1 0 0 1 208.0332 503.0117)" font-family="'FranklinGothic-Heavy'" font-size="36px">b</text>
<text transform="matrix(1 0 0 1 229.1797 503.0117)" font-family="'FranklinGothic-Heavy'" font-size="36px">.</text>
<text transform="matrix(1 0 0 1 239.0762 503.0117)" font-family="'FranklinGothic-Heavy'" font-size="36px">c</text>
<text transform="matrix(1 0 0 1 257.9023 503.0117)" font-family="'FranklinGothic-Heavy'" font-size="36px">o</text>
<text transform="matrix(1 0 0 1 279.2949 503.0117)" font-family="'FranklinGothic-Heavy'" font-size="36px">m</text>
<text transform="matrix(1 0 0 1 310.0918 503.0117)" font-family="'FranklinGothic-Heavy'" font-size="36px">/</text>
<text transform="matrix(1 0 0 1 328.4961 503.0117)" font-family="'FranklinGothic-Heavy'" font-size="36px">a</text>
<text transform="matrix(1 0 0 1 349.6074 503.0117)" font-family="'FranklinGothic-Heavy'" font-size="36px">n</text>
<text transform="matrix(1 0 0 1 371.0352 503.0117)" font-family="'FranklinGothic-Heavy'" font-size="36px">p</text>
<text transform="matrix(1 0 0 1 392.1465 503.0117)" font-family="'FranklinGothic-Heavy'" font-size="36px">a</text>
<text transform="matrix(1 0 0 1 413.2578 503.0117)" font-family="'FranklinGothic-Heavy'" font-size="36px">n</text>
<text transform="matrix(1 0 0 1 434.4043 503.0117)" font-family="'FranklinGothic-Heavy'" font-size="36px">s</text>
<text transform="matrix(1 0 0 1 453.4766 503.0117)" font-family="'FranklinGothic-Heavy'" font-size="36px">w</text>
<text transform="matrix(1 0 0 1 479.668 503.0117)" font-family="'FranklinGothic-Heavy'" font-size="36px">a</text>
<text transform="matrix(1 0 0 1 500.7793 503.0117)" font-family="'FranklinGothic-Heavy'" font-size="36px">p</text>
<path d="M418.3,95.1H223.8c-14.6,0-26.5,10.7-26.5,24V295c0,13.2,11.9,24,26.5,24h194.5c14.6,0,26.5-10.7,26.5-24V119.1
	C444.8,105.8,433,95.1,418.3,95.1z M350.5,286.9c-4.6,0.7-6.4-1.8-6.4-4c0-2.7,0.1-16.5,0.1-27.6c0-7.8-2.9-12.7-6.2-15.3
	c20.4-2,42-4.6,42-36.5c0-9.1-3.6-13.6-9.4-19.5c0.9-2.1,4.1-11-0.9-22.5c-7.7-2.1-25.2,8.9-25.2,8.9c-7.3-1.8-15.2-2.8-23-2.8
	c-7.8,0-15.7,0.9-23,2.8c0,0-17.6-11.1-25.2-8.9c-5,11.4-1.9,20.3-0.9,22.5c-5.9,5.8-8.6,10.4-8.6,19.5c0,31.8,20.6,34.5,41,36.5
	c-2.7,2.1-5,5.8-5.9,11.1c-5.2,2.1-18.7,5.8-26.7-6.9c-5-7.9-14.1-8.5-14.1-8.5c-8.9-0.1-0.6,5.1-0.6,5.1c6,2.5,10.2,12.1,10.2,12.1
	c5.4,14.8,31,9.8,31,9.8c0,6.9,0.1,18.2,0.1,20.3c0,2.1-1.7,4.7-6.4,4c-36.5-11-62-42.4-62-79.1c0-45.9,38.8-80.7,89.5-80.7
	s91.8,34.8,91.8,80.7C411.7,244.4,387,275.9,350.5,286.9z M296.3,256.3c-1,0.2-2-0.2-2.2-0.8c-0.1-0.7,0.6-1.4,1.7-1.6
	c1-0.1,2,0.3,2.2,0.9C298.2,255.5,297.4,256.1,296.3,256.3L296.3,256.3z M291.1,255.9c0,0.6-0.8,1.2-1.9,1.2c-1.2,0.1-2-0.4-2-1.2
	c0-0.6,0.8-1.2,1.9-1.2C290.1,254.6,291.1,255.1,291.1,255.9z M283.5,255.3c-0.2,0.6-1.3,0.9-2.3,0.6c-1-0.2-1.8-0.9-1.5-1.6
	c0.2-0.6,1.3-0.9,2.3-0.7C283.1,253.9,283.8,254.7,283.5,255.3L283.5,255.3z M276.7,252.6c-0.5,0.5-1.5,0.4-2.4-0.3
	c-0.8-0.6-1-1.6-0.5-2c0.5-0.5,1.5-0.4,2.4,0.3C276.9,251.2,277.2,252.2,276.7,252.6z M271.7,248.1c-0.5,0.3-1.4,0-2-0.7
	s-0.6-1.6,0-1.9c0.6-0.4,1.5-0.1,2,0.6C272.3,246.8,272.3,247.7,271.7,248.1z M268.1,243.2c-0.5,0.4-1.3,0.2-1.9-0.3
	c-0.6-0.6-0.7-1.4-0.2-1.7c0.5-0.4,1.3-0.2,1.9,0.3C268.5,242.1,268.6,242.9,268.1,243.2z M264.4,239.5c-0.2,0.4-0.9,0.5-1.5,0.2
	c-0.7-0.3-1-0.8-0.8-1.3c0.2-0.3,0.8-0.4,1.5-0.2C264.3,238.6,264.6,239.1,264.4,239.5z"/>
</svg>
