<?xml version="1.0" encoding="utf-8"?>
<!-- Generator: Adobe Illustrator 24.0.0, SVG Export Plug-In . SVG Version: 6.00 Build 0)  -->
<svg version="1.1" baseProfile="tiny" id="Layer_1" xmlns="http://www.w3.org/2000/svg" xmlns:xlink="http://www.w3.org/1999/xlink"
	 x="0px" y="0px" viewBox="0 0 644.5 611" xml:space="preserve">
<path fill="#FFFFFF" d="M483.4,0H161.1C72.3,0,0,68.5,0,152.8v305.5C0,542.5,72.3,611,161.1,611h322.3
	c88.8,0,161.1-68.5,161.1-152.8V152.8C644.5,68.5,572.2,0,483.4,0z"/>
<path fill="#783E21" d="M191.7,201.2c30.8,0,47.1-13,58.9-22.5c10.7-8.5,15.9-12.3,28.2-12.3c12.2,0,17.5,3.8,28.2,12.3
	c11.9,9.5,28.2,22.5,59,22.5c30.8,0,47.1-13,59.1-22.5c10.7-8.5,16-12.3,28.2-12.3c12.3,0,17.5,3.8,28.2,12.3
	c11.9,9.5,28.2,22.5,59,22.5v-34.7c-12.3,0-17.5-3.8-28.2-12.3c-11.9-9.5-28.2-22.5-59-22.5s-47.1,13-59,22.4
	c-10.7,8.5-15.9,12.3-28.2,12.3c-12.2,0-17.5-3.8-28.2-12.3c-11.9-9.5-28.2-22.5-59-22.5s-47.1,13-59,22.5
	c-10.7,8.5-15.9,12.3-28.1,12.3c-12.2,0-17.5-3.8-28.1-12.3c-11.9-9.5-28.2-22.5-58.9-22.5v34.7c12.2,0,17.5,3.8,28.1,12.3
	C144.7,188.3,160.9,201.2,191.7,201.2z"/>
<path fill="#783E21" d="M291.5,347.3c13.9-7.1,22.7-19.6,20.6-40.5c-2.7-28.6-26.2-38.1-57.4-40.8v-39.5h-24.3V265
	c-6.3,0-12.8,0.2-19.2,0.3v-38.8H187V266c-8.9,0.3-19.3,0.1-48.7,0v25.7c19.2-0.3,29.2-1.6,31.5,10.7v108.3c-1.5,9.7-9.3,8.3-26.6,8
	l-4.9,28.7c44.2,0,48.7,0.2,48.7,0.2v33.9h24.3v-33.4c6.6,0.2,13.1,0.2,19.2,0.2v33.2h24.3v-33.9c40.6-2.2,67.8-12.4,71.4-50.5
	C329,366.5,314.5,352.8,291.5,347.3L291.5,347.3z M211.7,293.5c13.7,0,56.6-4.2,56.6,24.2c0,27.2-42.9,24-56.6,24V293.5L211.7,293.5
	z M211.7,418.9v-53c16.4,0,66.6-4.6,66.6,26.5C278.3,422.4,228.1,418.9,211.7,418.9L211.7,418.9z"/>
<path fill="#783E21" d="M490.5,357.9l-71.7,46.9L347,357.9L418.8,226L490.5,357.9z M418.8,419.9L347,373l71.8,112l71.8-112
	L418.8,419.9L418.8,419.9z"/>
</svg>
