<?xml version="1.0" encoding="utf-8"?>
<!-- Generator: Adobe Illustrator 24.0.0, SVG Export Plug-In . SVG Version: 6.00 Build 0)  -->
<svg version="1.1" baseProfile="tiny" id="Layer_1" xmlns="http://www.w3.org/2000/svg" xmlns:xlink="http://www.w3.org/1999/xlink"
	 x="0px" y="0px" viewBox="0 0 644.5 616" xml:space="preserve">
<path fill="#FFFFFF" d="M483.4,0H161.1C72.3,0,0,69.1,0,154v308c0,84.9,72.3,154,161.1,154h322.3c88.8,0,161.1-69.1,161.1-154V154
	C644.5,69.1,572.2,0,483.4,0z"/>
<rect x="209.5" y="378" fill="none" width="225" height="46"/>
<text transform="matrix(1 0 0 1 216.918 415.3516)" font-family="'FranklinGothic-Heavy'" font-size="56px">Medium</text>
<text transform="matrix(1 0 0 1 165.749 503.0117)" font-family="'FranklinGothic-Heavy'" font-size="36px">F</text>
<text transform="matrix(1 0 0 1 184.6455 503.0117)" font-family="'FranklinGothic-Heavy'" font-size="36px">o</text>
<text transform="matrix(1 0 0 1 206.0381 503.0117)" font-family="'FranklinGothic-Heavy'" font-size="36px">l</text>
<text transform="matrix(1 0 0 1 216.6377 503.0117)" font-family="'FranklinGothic-Heavy'" font-size="36px">l</text>
<text transform="matrix(1 0 0 1 227.2373 503.0117)" font-family="'FranklinGothic-Heavy'" font-size="36px">o</text>
<text transform="matrix(1 0 0 1 248.1201 503.0117)" font-family="'FranklinGothic-Heavy'" font-size="36px">w</text>
<text transform="matrix(1 0 0 1 274.8564 503.0117)" font-family="'FranklinGothic-Heavy'" font-size="36px"> </text>
<text transform="matrix(1 0 0 1 283.8564 503.0117)" font-family="'FranklinGothic-Heavy'" font-size="36px">a</text>
<text transform="matrix(1 0 0 1 304.9678 503.0117)" font-family="'FranklinGothic-Heavy'" font-size="36px">n</text>
<text transform="matrix(1 0 0 1 326.3955 503.0117)" font-family="'FranklinGothic-Heavy'" font-size="36px">p</text>
<text transform="matrix(1 0 0 1 347.5068 503.0117)" font-family="'FranklinGothic-Heavy'" font-size="36px">a</text>
<text transform="matrix(1 0 0 1 368.6182 503.0117)" font-family="'FranklinGothic-Heavy'" font-size="36px">n</text>
<text transform="matrix(1 0 0 1 389.7646 503.0117)" font-family="'FranklinGothic-Heavy'" font-size="36px">s</text>
<text transform="matrix(1 0 0 1 408.8369 503.0117)" font-family="'FranklinGothic-Heavy'" font-size="36px">w</text>
<text transform="matrix(1 0 0 1 435.0283 503.0117)" font-family="'FranklinGothic-Heavy'" font-size="36px">a</text>
<text transform="matrix(1 0 0 1 456.1396 503.0117)" font-family="'FranklinGothic-Heavy'" font-size="36px">p</text>
<path d="M382.9,91H255.6c-35.1,0-63.6,26.3-63.6,58.6v117.1c0,32.3,28.6,58.6,63.6,58.6h127.3c35.1,0,63.6-26.3,63.6-58.6V149.6
	C446.5,117.3,417.9,91,382.9,91z"/>
<g transform="translate(0.000000,171.000000) scale(0.100000,-0.100000)">
	<path fill="#FFFFFF" d="M2645.4,151.7c-202.5-36.5-367.5-178.9-429.3-371.4c-15.8-48.9-17.7-66.2-18.4-145.5
		c0-74.9,2-97.8,14.5-138c56.5-186.3,195.2-320.6,384.6-372c260.3-71.2,536.4,47,652.8,277.9c44,87.3,51.9,121.9,51.9,229
		c0,109.5-11.8,157.2-59.2,244.5c-71,128.7-198.5,227.2-345.1,266.2C2831.5,159.7,2714.4,164.1,2645.4,151.7z"/>
	<path fill="#FFFFFF" d="M3592.7,123.9c-101.2-28.5-192-174.6-222.2-355.9c-11.8-70.6-10.5-216.7,2.6-287.8
		c29.6-158.5,104.5-286,192-328.1c42.7-20.4,105.2-21.1,144-1.9c221.5,109.5,280,619.6,100.6,872.2
		C3748.5,109,3669.6,145.5,3592.7,123.9z"/>
	<path fill="#FFFFFF" d="M4055.5,76.2c-12.5-4.9-38.1-55.7-50-102.7c-59.8-225.9-38.1-679,36.1-768.2c32.9-39,62.4-10.5,87.4,84.2
		c62.4,231.5,38.8,695.7-38.8,775C4074.6,80.5,4070.6,81.8,4055.5,76.2z"/>
</g>
</svg>
