<?xml version="1.0" encoding="utf-8"?>
<!-- Generator: Adobe Illustrator 24.0.0, SVG Export Plug-In . SVG Version: 6.00 Build 0)  -->
<svg version="1.1" baseProfile="tiny" id="Layer_1" xmlns="http://www.w3.org/2000/svg" xmlns:xlink="http://www.w3.org/1999/xlink"
	 x="0px" y="0px" viewBox="0 0 644.5 611" xml:space="preserve">
<path fill="#FFFFFF" d="M483.4,0H161.1C72.3,0,0,68.5,0,152.8v305.5C0,542.5,72.3,611,161.1,611h322.3
	c88.8,0,161.1-68.5,161.1-152.8V152.8C644.5,68.5,572.2,0,483.4,0z"/>
<path fill="#502916" stroke="#FFFFFF" stroke-width="1.5" d="M276.5,145.9c-19.8,0-35.8,14.9-35.8,33.3v41.5
	c0,7.3-5.2,13.5-12.2,16.7c-29.9,13.5-50.5,41.9-50.5,74.9v83.2c0,36.7,32.1,66.5,71.6,66.5h107.4c39.6,0,71.6-29.8,71.6-66.5v-83.2
	c0-9.7-1.8-19-5.1-27.6l1.3-0.7c30.2-16.2,40.6-52.2,23.1-80.3c-16.6-26.7-52.4-36.8-82-23.6v-0.9c0-18.4-16-33.3-35.8-33.3H276.5z
	 M276.5,216.6v-37.4h53.7v37.4H276.5z M271.6,241.6c-5.9,12-16.5,20.8-27.5,25.8c-18,8.1-30.3,25.2-30.3,44.9v83.2
	c0,18.4,16,33.3,35.8,33.3h107.4c19.8,0,35.8-14.9,35.8-33.3v-83.2c0-19.7-12.3-36.8-30.3-44.9c-10.9-4.9-21.5-13.8-27.5-25.8H271.6
	z M366,217.8v2.9c0,7.3,5.2,13.5,12.2,16.7c10.2,4.6,19.4,11,27,18.7l1.8-1c13.1-7,17.6-22.6,10-34.8c-7.4-12-23.8-16.2-36.9-9.6
	L366,217.8z"/>
<path fill="#FFFFFF" d="M244.5,331.7c0-15.3,14.8-27.7,33.1-27.7h49.7c18.3,0,33.1,12.4,33.1,27.7v27.7c0,15.3-14.8,27.7-33.1,27.7
	h-49.7c-18.3,0-33.1-12.4-33.1-27.7V331.7z"/>
</svg>
