<?xml version="1.0" encoding="utf-8"?>
<!-- Generator: Adobe Illustrator 24.0.0, SVG Export Plug-In . SVG Version: 6.00 Build 0)  -->
<svg version="1.1" baseProfile="tiny" id="Layer_1" xmlns="http://www.w3.org/2000/svg" xmlns:xlink="http://www.w3.org/1999/xlink"
	 x="0px" y="0px" viewBox="0 0 644.5 611" xml:space="preserve">
<path fill="#FFFFFF" d="M483.4,0H161.1C72.3,0,0,68.5,0,152.8v305.5C0,542.5,72.3,611,161.1,611h322.3
	c88.8,0,161.1-68.5,161.1-152.8V152.8C644.5,68.5,572.2,0,483.4,0z"/>
<path fill="#783E21" d="M493.2,346.9H138.1c-2.2,0-4.1,2-4.1,4.5v33.7c0,2.5,1.8,4.5,4.1,4.5h308.8l-73.6,102.7
	c-2.1,2.9-0.2,7.3,3.2,7.3h37c2.5,0,4.8-1.2,6.4-3.4L506.1,376C514.5,364.2,506.9,346.9,493.2,346.9L493.2,346.9z M505.5,214.5
	H196.7l73.6-102.7c2.1-2.9,0.2-7.3-3.2-7.3h-37c-2.5,0-4.8,1.2-6.4,3.4l-86.1,120.2c-8.4,11.8-0.8,29.1,12.8,29.1h355.2
	c2.2,0,4.1-2,4.1-4.5V219C509.6,216.5,507.7,214.5,505.5,214.5z"/>
</svg>
