<?xml version="1.0" encoding="utf-8"?>
<!-- Generator: Adobe Illustrator 24.0.0, SVG Export Plug-In . SVG Version: 6.00 Build 0)  -->
<svg version="1.1" baseProfile="basic" id="Layer_1"
	 xmlns="http://www.w3.org/2000/svg" xmlns:xlink="http://www.w3.org/1999/xlink" x="0px" y="0px" viewBox="0 0 644.5 616"
	 xml:space="preserve">
<path fill="#FFFFFF" d="M483.4,0H161.1C72.3,0,0,69.1,0,154v308c0,84.9,72.3,154,161.1,154h322.3c88.8,0,161.1-69.1,161.1-154V154
	C644.5,69.1,572.2,0,483.4,0z"/>
<rect x="195.5" y="378" fill="none" width="257" height="46"/>
<text transform="matrix(1 0 0 1 202.7578 415.3516)" fill="#0099FF" font-family="'FranklinGothic-Heavy'" font-size="56px">Telegram</text>
<text transform="matrix(1 0 0 1 263.7734 503.0117)" fill="#0099FF" font-family="'FranklinGothic-Heavy'" font-size="36px">Chats</text>
<g transform="translate(0.000000,171.000000) scale(0.100000,-0.100000)">
	<path fill="#FFFFFF" d="M2645.4,151.7c-202.5-36.5-367.5-178.9-429.3-371.4c-15.8-48.9-17.7-66.2-18.4-145.5
		c0-74.9,2-97.8,14.5-138c56.5-186.3,195.2-320.6,384.6-372c260.3-71.2,536.4,47,652.8,277.9c44,87.3,51.9,121.9,51.9,229
		c0,109.5-11.8,157.2-59.2,244.5c-71,128.7-198.5,227.2-345.1,266.2C2831.5,159.7,2714.4,164.1,2645.4,151.7z"/>
	<path fill="#FFFFFF" d="M3592.7,123.9c-101.2-28.5-192-174.6-222.2-355.9c-11.8-70.6-10.5-216.7,2.6-287.8
		c29.6-158.5,104.5-286,192-328.1c42.7-20.4,105.2-21.1,144-1.9c221.5,109.5,280,619.6,100.6,872.2
		C3748.5,109,3669.6,145.5,3592.7,123.9z"/>
	<path fill="#FFFFFF" d="M4055.5,76.2c-12.5-4.9-38.1-55.7-50-102.7c-59.8-225.9-38.1-679,36.1-768.2c32.9-39,62.4-10.5,87.4,84.2
		c62.4,231.5,38.8,695.7-38.8,775C4074.6,80.5,4070.6,81.8,4055.5,76.2z"/>
</g>
<path fill="#0099FF" d="M375.3,91H254.9c-33.2,0-60.2,26.3-60.2,58.6v117.1c0,32.3,27,58.6,60.2,58.6h120.4
	c33.2,0,60.2-26.3,60.2-58.6V149.6C435.5,117.3,408.5,91,375.3,91z"/>
<path fill="#FFFFFF" d="M408.9,139.3l-28.4,143.8c-2,10.2-7.7,12.7-15.8,7.9l-43.3-34.3l-21,21.7c-2.4,2.5-4.3,4.7-8.7,4.7
	c-5.7,0-4.7-2.3-6.6-8l-15-52.2l-42.9-14.3c-9.3-3-9.4-9.8,2.1-14.8l167.5-69.2C404.4,121,411.7,126.6,408.9,139.3L408.9,139.3z"/>
</svg>
