<?xml version="1.0" encoding="utf-8"?>
<!-- Generator: Adobe Illustrator 24.0.0, SVG Export Plug-In . SVG Version: 6.00 Build 0)  -->
<svg version="1.1" baseProfile="tiny" id="Layer_1" xmlns="http://www.w3.org/2000/svg" xmlns:xlink="http://www.w3.org/1999/xlink"
	 x="0px" y="0px" viewBox="0 0 644.5 616" xml:space="preserve">
<path fill="#FFFFFF" d="M483.4,0H161.1C72.3,0,0,69.1,0,154v308c0,84.9,72.3,154,161.1,154h322.3c88.8,0,161.1-69.1,161.1-154V154
	C644.5,69.1,572.2,0,483.4,0z"/>
<path fill="#4DB8FF" d="M413.3,95H221.2c-14.5,0-26.2,10.7-26.2,24v176c0,13.2,11.7,24,26.2,24h192.1c14.5,0,26.2-10.7,26.2-24V119
	C439.5,105.8,427.8,95,413.3,95z M386.6,174.4c0.1,1.4,0.1,2.8,0.1,4.2c0,43.3-36,93.3-101.8,93.3c-20.3,0-39.1-5.4-55-14.7
	c2.9,0.3,5.7,0.4,8.6,0.4c16.8,0,32.1-5.2,44.4-14c-15.7-0.3-28.9-9.7-33.5-22.7c5.5,0.7,10.5,0.7,16.2-0.6
	c-16.4-3-28.7-16.2-28.7-32.2v-0.4c4.7,2.4,10.3,3.9,16.2,4.1c-10-6.1-15.9-16.3-15.9-27.3c0-6.1,1.7-11.7,4.9-16.5
	c17.6,19.9,44.1,32.9,73.8,34.3c-5.1-22.2,13.1-40.3,34.9-40.3c10.3,0,19.6,3.9,26.1,10.3c8.1-1.4,15.8-4.1,22.7-7.9
	c-2.7,7.6-8.3,14-15.7,18c7.2-0.7,14.2-2.5,20.6-5.1C399.7,164,393.6,169.8,386.6,174.4z"/>
<rect x="202.5" y="378" fill="none" width="225" height="46"/>
<text transform="matrix(1 0 0 1 219.7705 418.0195)" fill="#4DB8FF" font-family="'FranklinGothic-Heavy'" font-size="60px">T</text>
<text transform="matrix(1 0 0 1 245.1709 418.0195)" fill="#4DB8FF" font-family="'FranklinGothic-Heavy'" font-size="60px">w</text>
<text transform="matrix(1 0 0 1 289.7314 418.0195)" fill="#4DB8FF" font-family="'FranklinGothic-Heavy'" font-size="60px">i</text>
<text transform="matrix(1 0 0 1 307.5732 418.0195)" fill="#4DB8FF" font-family="'FranklinGothic-Heavy'" font-size="60px">t</text>
<text transform="matrix(1 0 0 1 329.8682 418.0195)" fill="#4DB8FF" font-family="'FranklinGothic-Heavy'" font-size="60px">t</text>
<text transform="matrix(1 0 0 1 352.1631 418.0195)" fill="#4DB8FF" font-family="'FranklinGothic-Heavy'" font-size="60px">e</text>
<text transform="matrix(1 0 0 1 387.3486 418.0195)" fill="#4DB8FF" font-family="'FranklinGothic-Heavy'" font-size="60px">r</text>
<text transform="matrix(1 0 0 1 151.9502 503.0117)" fill="#4DB8FF" font-family="'FranklinGothic-Heavy'" font-size="36px">F</text>
<text transform="matrix(1 0 0 1 170.8467 503.0117)" fill="#4DB8FF" font-family="'FranklinGothic-Heavy'" font-size="36px">o</text>
<text transform="matrix(1 0 0 1 192.2393 503.0117)" fill="#4DB8FF" font-family="'FranklinGothic-Heavy'" font-size="36px">l</text>
<text transform="matrix(1 0 0 1 202.8389 503.0117)" fill="#4DB8FF" font-family="'FranklinGothic-Heavy'" font-size="36px">l</text>
<text transform="matrix(1 0 0 1 213.4385 503.0117)" fill="#4DB8FF" font-family="'FranklinGothic-Heavy'" font-size="36px">o</text>
<text transform="matrix(1 0 0 1 234.3213 503.0117)" fill="#4DB8FF" font-family="'FranklinGothic-Heavy'" font-size="36px">w</text>
<text transform="matrix(1 0 0 1 261.0576 503.0117)" fill="#4DB8FF" font-family="'FranklinGothic-Heavy'" font-size="36px"> </text>
<text transform="matrix(1 0 0 1 270.0576 503.0117)" fill="#4DB8FF" font-family="'FranklinGothic-Heavy'" font-size="36px">@</text>
<text transform="matrix(1 0 0 1 297.6553 503.0117)" fill="#4DB8FF" font-family="'FranklinGothic-Heavy'" font-size="36px">a</text>
<text transform="matrix(1 0 0 1 318.7666 503.0117)" fill="#4DB8FF" font-family="'FranklinGothic-Heavy'" font-size="36px">n</text>
<text transform="matrix(1 0 0 1 340.1943 503.0117)" fill="#4DB8FF" font-family="'FranklinGothic-Heavy'" font-size="36px">p</text>
<text transform="matrix(1 0 0 1 361.3057 503.0117)" fill="#4DB8FF" font-family="'FranklinGothic-Heavy'" font-size="36px">a</text>
<text transform="matrix(1 0 0 1 382.417 503.0117)" fill="#4DB8FF" font-family="'FranklinGothic-Heavy'" font-size="36px">n</text>
<text transform="matrix(1 0 0 1 403.5635 503.0117)" fill="#4DB8FF" font-family="'FranklinGothic-Heavy'" font-size="36px">s</text>
<text transform="matrix(1 0 0 1 422.6357 503.0117)" fill="#4DB8FF" font-family="'FranklinGothic-Heavy'" font-size="36px">w</text>
<text transform="matrix(1 0 0 1 448.8271 503.0117)" fill="#4DB8FF" font-family="'FranklinGothic-Heavy'" font-size="36px">a</text>
<text transform="matrix(1 0 0 1 469.9385 503.0117)" fill="#4DB8FF" font-family="'FranklinGothic-Heavy'" font-size="36px">p</text>
</svg>
