<?xml version="1.0" encoding="utf-8"?>
<!-- Generator: Adobe Illustrator 24.0.0, SVG Export Plug-In . SVG Version: 6.00 Build 0)  -->
<svg version="1.0" id="Layer_1" xmlns="http://www.w3.org/2000/svg" xmlns:xlink="http://www.w3.org/1999/xlink" x="0px" y="0px"
	 viewBox="0 0 20 20" enable-background="new 0 0 20 20" xml:space="preserve">
<circle fill="#99CCFF" cx="10" cy="10" r="10"/>
<path fill="#7D401B" d="M13.9,10.1c0,0.9-0.3,1.7-0.9,2.3c-0.6,0.6-1.3,0.9-2.1,0.9H8.3V6.9h2.6C12.5,6.9,13.9,8.4,13.9,10.1z"/>
<path fill="#FFE6B4" d="M14.3,13.4c-0.4,0.4-0.8,0.8-1.4,1c-0.5,0.2-1.1,0.4-1.7,0.4H9.2v-0.5h2.2c2,0,3.7-1.8,3.7-4V9.9
	c0-2.2-1.6-4-3.7-4H9.2V5.5h2.1c0.6,0,1.1,0.1,1.7,0.4c0.5,0.2,1,0.6,1.4,1c0.4,0.4,0.7,0.9,0.9,1.5c0.2,0.6,0.3,1.2,0.3,1.8
	c0,0.6-0.1,1.2-0.3,1.8C15,12.5,14.7,13,14.3,13.4z"/>
<g>
	<linearGradient id="SVGID_1_" gradientUnits="userSpaceOnUse" x1="11.3582" y1="10.6301" x2="11.3582" y2="6.0179">
		<stop  offset="6.819570e-07" style="stop-color:#ED9E47"/>
		<stop  offset="1" style="stop-color:#EA8D44"/>
	</linearGradient>
	<path fill="url(#SVGID_1_)" d="M10.9,6.4H8.3v0.6h2.6c1.6,0,2.9,1.4,2.9,3.2c0,0.9-0.3,1.7-0.9,2.3c-0.6,0.6-1.3,0.9-2.1,0.9H8.3
		v0.6h2.6c0.9,0,1.8-0.4,2.4-1.1c0.7-0.7,1-1.7,1-2.7C14.4,8.1,12.9,6.4,10.9,6.4z"/>
</g>
<linearGradient id="SVGID_2_" gradientUnits="userSpaceOnUse" x1="9.1865" y1="10.1423" x2="14.8121" y2="10.1423">
	<stop  offset="0" style="stop-color:#ED9E47"/>
	<stop  offset="1" style="stop-color:#EA8D44"/>
</linearGradient>
<path fill="url(#SVGID_2_)" d="M11.3,3.5H9.2v2h2.1c0.6,0,1.1,0.1,1.7,0.4c0.5,0.2,1,0.6,1.4,1c0.4,0.4,0.7,0.9,0.9,1.5
	c0.2,0.6,0.3,1.2,0.3,1.8s-0.1,1.2-0.3,1.8c-0.2,0.6-0.5,1.1-0.9,1.5c-0.4,0.4-0.8,0.8-1.4,1c-0.5,0.2-1.1,0.4-1.7,0.4H9.2v2h2.1
	c3.4,0,6.1-3,6.1-6.7C17.4,6.5,14.7,3.5,11.3,3.5z"/>
<linearGradient id="SVGID_3_" gradientUnits="userSpaceOnUse" x1="9.5446" y1="10.1423" x2="5.182" y2="10.1423">
	<stop  offset="0" style="stop-color:#ED9E47"/>
	<stop  offset="1" style="stop-color:#EA8D44"/>
</linearGradient>
<path fill="url(#SVGID_3_)" d="M2.9,10.1c0,3.6,2.6,6.6,5.9,6.7V3.5C5.6,3.6,2.9,6.5,2.9,10.1z"/>
</svg>
