<?xml version="1.0" encoding="utf-8"?>
<!-- Generator: Adobe Illustrator 24.0.0, SVG Export Plug-In . SVG Version: 6.00 Build 0)  -->
<svg version="1.1" baseProfile="tiny" id="Layer_1" xmlns="http://www.w3.org/2000/svg" xmlns:xlink="http://www.w3.org/1999/xlink"
	 x="0px" y="0px" viewBox="0 0 96 96" xml:space="preserve">
<circle fill="#4DA6FF" cx="48" cy="48" r="48"/>
<path fill-rule="evenodd" fill="#7E3E02" d="M47.6,21.3c3.3,0.6,7.6,1.7,12.2,3.8c5.5,2.4,9.6,5.3,12.3,7.6c1.7,1.4,3.3,2.8,5,4.2
	c6.6,7.1,9.9,15.8,6.1,23.2l-2.3,4.5c-3.2,6.1-10.2,9.3-18,10.1c-7.9,0.8-17.3-0.8-26.3-4.7c-9-4-16.2-9.7-20.6-15.8
	c-4.3-6.1-6-13.2-2.8-19.3l2.3-4.5c3.8-7.4,13.2-10.6,23.2-10.3C41.6,20.5,44.6,20.9,47.6,21.3z M73.2,37.2l-8.5-6.3
	c-0.9-0.5-1.7-1-2.6-1.5c-1.2-0.6-2.4-1.2-3.6-1.7c-1.3-0.6-2.6-1.1-3.9-1.5c-1-0.3-1.9-0.7-2.9-0.9l-10.7-2
	c-10.6-0.8-19.5,2.2-22.8,8.6l-2.3,4.5c-5,9.8,4.8,23.8,22,31.3c17.2,7.5,35.2,5.7,40.3-4.1l2.3-4.5C83.8,52.5,80.6,44.2,73.2,37.2z
	"/>
<path fill="#FEE6B3" d="M78.1,63.5c-5,9.8-23.1,11.6-40.3,4.1c-17.2-7.5-27-21.6-22-31.3l2.3-4.5L80.4,59L78.1,63.5z"/>
<path fill-rule="evenodd" fill="#D5915D" d="M51.7,25.2c2.3,0.7,4.5,1.5,6.8,2.5c2.2,1,4.3,2,6.2,3.2l8.5,6.3
	c7.5,7.1,10.6,15.4,7.3,21.8c-5,9.8-23.1,11.6-40.3,4.1c-17.2-7.5-27-21.6-22-31.3c3.3-6.4,12.2-9.4,22.8-8.6L51.7,25.2z"/>
</svg>
